<?xml version="1.0" ?><svg enable-background="new 0 0 190 50" height="499.99997" id="Layer_1" version="1.1" viewBox="0 0 499.99998 499.99999" width="499.99997" xml:space="preserve" xmlns="http://www.w3.org/2000/svg" xmlns:cc="http://creativecommons.org/ns#" xmlns:dc="http://purl.org/dc/elements/1.1/" xmlns:inkscape="http://www.inkscape.org/namespaces/inkscape" xmlns:rdf="http://www.w3.org/1999/02/22-rdf-syntax-ns#" xmlns:sodipodi="http://sodipodi.sourceforge.net/DTD/sodipodi-0.dtd" xmlns:svg="http://www.w3.org/2000/svg"><defs id="defs43"/><path d="M 49.999999,0 C 22.299999,0 -6.9413872e-7,22.3 -6.9413872e-7,50 l 0,400 C -6.9413872e-7,477.7 22.299999,500 49.999999,500 L 450,500 c 27.7,0 50,-22.3 50,-50 L 500,50 C 500,22.3 477.7,0 450,0 L 49.999999,0 z m 232.093751,73.6875 0,371.3125 -216.187501,-45.3125 0,-284.15625 L 282.09375,73.6875 z m 13.65625,78.71875 124.6875,0 c 4.58826,0 12.71875,6.25247 12.71875,14.96875 l -109.25,73.65625 c -0.66938,0.20933 -2.11184,0.19538 -2.78125,0 l -25.375,-16 0,-72.625 z m -119.3125,42 c -15.10356,0 -27.2437,6.10972 -36.40625,18.3125 -9.16255,12.20279 -13.75,28.17596 -13.75,47.9375 0,18.71559 4.52211,33.90361 13.53125,45.5625 9.02309,11.64494 20.67742,17.46875 35,17.46875 14.69913,0 26.61534,-6.04101 35.75,-18.0625 9.13466,-12.02149 13.70145,-27.85003 13.6875,-47.5 0,-19.12002 -4.40485,-34.53197 -13.21875,-46.21875 -8.79995,-11.68678 -20.32695,-17.5 -34.59375,-17.5 z m 256.75,2.3125 0,133.5 c 0,14.53179 -9.32169,20.625 -19.78125,20.625 l -117.65625,0 0,-98.6875 23.15625,15.90625 c 3.26339,2.39873 7.21875,0 7.21875,0 -3.91882,2.39873 107.0625,-71.34375 107.0625,-71.34375 z m -257.375,21.9375 c 7.67032,0 13.70411,3.58509 18.125,10.78125 4.42089,7.2101 6.625,17.29413 6.625,30.25 0,12.42592 -2.29734,22.15534 -6.84375,29.15625 -4.54641,7.00091 -10.70081,10.5 -18.46875,10.5 -7.53086,0 -13.60597,-3.57115 -18.25,-10.78125 -4.64403,-7.19616 -7,-16.99092 -7,-29.375 0,-12.20279 2.35597,-22.0009 7,-29.40625 4.64403,-7.40535 10.91904,-11.125 18.8125,-11.125 z" id="rect2986" style="fill:#282f35;fill-opacity:1;stroke:none"/><g id="g2988" style="fill:#999999" transform="translate(717.00003,271.6875)"><g id="g23" style="fill:#999999" transform="matrix(13.946041,0,0,13.946041,-502.07017,-337.31204)"/></g></svg>