<?xml version="1.0" ?><svg height="500" id="svg2" version="1.1" width="500" xmlns="http://www.w3.org/2000/svg" xmlns:cc="http://creativecommons.org/ns#" xmlns:dc="http://purl.org/dc/elements/1.1/" xmlns:inkscape="http://www.inkscape.org/namespaces/inkscape" xmlns:rdf="http://www.w3.org/1999/02/22-rdf-syntax-ns#" xmlns:sodipodi="http://sodipodi.sourceforge.net/DTD/sodipodi-0.dtd" xmlns:svg="http://www.w3.org/2000/svg"><defs id="defs4"/><g id="layer1" transform="translate(0,-552.36218)"><path d="M 50 0 C 22.3 0 -1.0018638e-016 22.3 0 50 L 0 450 C 0 477.7 22.3 500 50 500 L 450 500 C 477.7 500 500 477.7 500 450 L 500 50 C 500 22.3 477.7 -1.0018638e-016 450 0 L 50 0 z M 259.5625 53.875 C 346.46804 53.875 403.66425 116.75792 403.65625 184.28125 C 403.65625 273.5588 354.00265 340.25 280.84375 340.25 C 256.26376 340.25 233.16208 326.9981 225.25 311.90625 C 225.25 311.90625 212.0439 364.32055 209.25 374.4375 C 199.40368 410.20901 170.39296 446.00029 168.15625 448.9375 C 166.5802 450.9752 163.0849 450.33137 162.71875 447.625 C 162.08992 443.07197 154.71411 397.93926 163.40625 361.125 C 167.7762 342.64226 192.6875 237.125 192.6875 237.125 C 192.6875 237.125 185.4375 222.57736 185.4375 201.09375 C 185.4375 167.36791 204.9713 142.1875 229.3125 142.1875 C 250.00011 142.1875 260.03125 157.71772 260.03125 176.34375 C 260.03125 197.17466 246.77501 228.2865 239.9375 257.125 C 234.23826 281.28312 252.05917 300.96875 275.875 300.96875 C 318.9855 300.96875 348 245.57434 348 179.9375 C 348 130.06911 314.43612 92.71875 253.3125 92.71875 C 184.28478 92.71875 141.25 144.20093 141.25 201.71875 C 141.25 221.55466 147.11947 235.5735 156.28125 246.375 C 160.49201 251.36583 161.08284 253.35529 159.5625 259.0625 C 158.45609 263.27325 155.95694 273.33258 154.90625 277.3125 C 153.39388 283.08347 148.71369 285.14916 143.5 283 C 111.71635 270.03343 96.90625 235.20899 96.90625 196.0625 C 96.90625 131.39676 151.42012 53.875 259.5625 53.875 z " id="rect2995" style="fill:#282f35;fill-opacity:1;fill-rule:nonzero" transform="translate(0,552.36218)"/></g></svg>