<?xml version="1.0" ?><svg height="500" id="Layer_1" version="1.1" viewBox="0 0 500 500" width="500" xml:space="preserve" xmlns="http://www.w3.org/2000/svg" xmlns:cc="http://creativecommons.org/ns#" xmlns:dc="http://purl.org/dc/elements/1.1/" xmlns:inkscape="http://www.inkscape.org/namespaces/inkscape" xmlns:rdf="http://www.w3.org/1999/02/22-rdf-syntax-ns#" xmlns:sodipodi="http://sodipodi.sourceforge.net/DTD/sodipodi-0.dtd" xmlns:svg="http://www.w3.org/2000/svg"><defs id="defs7"/><path d="M 50,0 C 22.3,0 0,22.3 0,50 l 0,400 c 0,27.7 22.3,50 50,50 l 400,0 c 27.7,0 50,-22.3 50,-50 L 500,50 C 500,22.3 477.7,0 450,0 L 50,0 z m 115.875,61.84375 c 20.8,0 40.10625,5.89375 56.40625,16.09375 10.2,-1.7 20.58125,-2.59375 31.28125,-2.59375 101.2,0 183.21875,80.89375 183.21875,180.59375 0,13.3 -1.41875,26.21875 -4.21875,38.71875 7.1,14 11.1,29.8 11,46.5 0,57.8 -47.4875,104.6875 -106.1875,104.6875 -18.1,0 -35.1875,-4.50625 -50.1875,-12.40625 -10.8,2 -22,3 -33.5,3 -101.1,0 -183.125,-80.79375 -183.125,-180.59375 0,-12.4 1.31875,-24.6125 3.71875,-36.3125 -9.3,-15.5 -14.59375,-33.6 -14.59375,-53 0,-57.8 47.5875,-104.6875 106.1875,-104.6875 z M 252.0625,128.75 c -20.4,0 -38.4875,2.80625 -53.6875,8.40625 -15.5,5.6 -27.39375,13.78125 -35.59375,24.28125 -8.2,10.6 -12.40625,22.8 -12.40625,36.5 0,14.3 3.9125,26.51875 11.8125,36.21875 7.8,9.5 18.4,17.1875 31.5,22.6875 12.9,5.4 29,10.1875 48,14.1875 14,2.9 25.29375,5.61875 33.59375,8.21875 8.1,2.4 14.59375,5.99375 19.59375,10.59375 4.8,4.4 7.09375,9.99375 7.09375,17.09375 0,9 -4.39375,16.4 -13.59375,22.5 -9.3,6.3 -21.7125,9.5 -36.8125,9.5 -11,0 -19.89375,-1.5875 -26.59375,-4.6875 -6.6,-3.1 -11.68125,-7.01875 -15.28125,-11.71875 -3.8,-4.9 -7.325,-11.075 -10.625,-18.375 -2.9,-6.8 -6.4875,-12 -10.6875,-15.5 -4.4,-3.7 -9.79375,-5.5 -16.09375,-5.5 -7.6,0 -14.09375,2.4 -19.09375,7 -5,4.8 -7.625,10.49375 -7.625,17.09375 0,10.6 3.91875,21.59375 11.71875,32.59375 7.8,11 17.8875,19.80625 30.1875,26.40625 17.3,9 39.29375,13.59375 65.59375,13.59375 22,0 41.2125,-3.30625 57.3125,-9.90625 16.2,-6.6 28.6875,-15.98125 37.1875,-27.78125 8.6,-11.8 12.9,-25.4 12.5,-40.5 0,-12.4 -2.475,-23.2125 -7.375,-31.8125 -5,-8.6 -11.91875,-15.9 -20.71875,-21.5 -8.6,-5.5 -19.08125,-10.19375 -31.28125,-14.09375 -12,-3.7 -25.6,-7.30625 -40.5,-10.40625 -11.7,-2.6 -20.2125,-4.69375 -25.3125,-6.09375 -4.9,-1.3 -9.8875,-3.19375 -14.6875,-5.59375 -4.7,-2.3 -8.30625,-5.11875 -10.90625,-8.21875 -2.5,-3 -3.71875,-6.4 -3.71875,-10.5 0,-6.7 3.7125,-12.38125 11.3125,-17.28125 7.9,-5.1 18.5875,-7.71875 31.6875,-7.71875 14.2,0 24.425,2.4 30.625,7 6.3,4.8 11.775,11.59375 16.375,20.09375 3.9,6.7 7.50625,11.3125 10.90625,14.3125 3.7,3.2 9.0125,4.8125 15.8125,4.8125 7.5,0 13.78125,-2.7125 18.78125,-7.8125 5,-5.1 7.5,-11.00625 7.5,-17.40625 0,-6.7 -1.8875,-13.59375 -5.6875,-20.59375 -3.8,-6.9 -9.8125,-13.4875 -17.8125,-19.6875 -8.1,-6.2 -18.18125,-11.20625 -30.28125,-14.90625 -12,-3.6 -26.31875,-5.5 -42.71875,-5.5 z" id="rect2986" style="fill:#282f35;fill-opacity:1;stroke:none"/></svg>