<?xml version="1.0" ?><svg height="60px" version="1.1" viewBox="0 0 60 60" width="60px" xmlns="http://www.w3.org/2000/svg" xmlns:xlink="http://www.w3.org/1999/xlink"><title/><desc/><defs/><g fill="none" fill-rule="evenodd" id="People" stroke="none" stroke-width="1"><g fill="#000000" id="Icon-26"><path d="M23.707,24.293 C23.316,23.902 22.684,23.902 22.293,24.293 L12.293,34.293 C11.902,34.684 11.902,35.316 12.293,35.707 C12.488,35.902 12.744,36 13,36 C13.256,36 13.512,35.902 13.707,35.707 L23,26.414 L30.293,33.707 C30.684,34.098 31.316,34.098 31.707,33.707 L46,19.414 L46,23 C46,23.553 46.448,24 47,24 C47.552,24 48,23.553 48,23 L48,17 C48,16.87 47.974,16.74 47.923,16.618 C47.821,16.373 47.626,16.179 47.382,16.077 C47.26,16.026 47.13,16 47,16 L41,16 C40.448,16 40,16.447 40,17 C40,17.553 40.448,18 41,18 L44.586,18 L31,31.586 L23.707,24.293 Z M33.707,54.293 C33.316,53.902 32.684,53.902 32.293,54.293 C31.902,54.684 31.902,55.316 32.293,55.707 L36.293,59.707 C36.488,59.902 36.744,60 37,60 C37.256,60 37.512,59.902 37.707,59.707 C38.098,59.316 38.098,58.684 37.707,58.293 L33.707,54.293 Z M30,48 C29.448,48 29,48.447 29,49 L29,51.586 L22.293,58.293 C21.902,58.684 21.902,59.316 22.293,59.707 C22.488,59.902 22.744,60 23,60 C23.256,60 23.512,59.902 23.707,59.707 L30.707,52.707 C30.894,52.52 31,52.266 31,52 L31,49 C31,48.447 30.552,48 30,48 L30,48 Z M60,3 L60,7 C60,7.553 59.552,8 59,8 L58,8 L58,41 C58,43.757 55.757,46 53,46 L7,46 C4.243,46 2,43.757 2,41 L2,11 C2,10.447 2.448,10 3,10 C3.552,10 4,10.447 4,11 L4,41 C4,42.654 5.346,44 7,44 L53,44 C54.654,44 56,42.654 56,41 L56,7 C56,6.447 56.448,6 57,6 L58,6 L58,4 L2,4 L2,6 L53,6 C53.552,6 54,6.447 54,7 C54,7.553 53.552,8 53,8 L1,8 C0.448,8 0,7.553 0,7 L0,3 C0,2.447 0.448,2 1,2 L29,2 L29,1 C29,0.447 29.448,0 30,0 C30.552,0 31,0.447 31,1 L31,2 L59,2 C59.552,2 60,2.447 60,3 L60,3 Z" id="presentation-arrow"/></g></g></svg>